<svg clip-rule="evenodd" fill-rule="evenodd" height="300" image-rendering="optimizeQuality" shape-rendering="geometricPrecision" text-rendering="geometricPrecision" viewBox="0 0 4335 4335" width="300" xmlns="http://www.w3.org/2000/svg" version="1.1" xmlns:xlink="http://www.w3.org/1999/xlink" xmlns:svgjs="http://svgjs.dev/svgjs"><g width="100%" height="100%" transform="matrix(1,0,0,1,0,0)"><g id="Layer_x0020_1"><path d="m3191 3096c-180-15-396-83-396-379v-327c0-32 26-57 58-57h497v-58c-54 0-138 13-138-58s84-58 138-58v-166c0-136 111-248 247-248 231 0 317 306 191 306-32 0-58-26-58-58 0-174-265-174-265 0v340h810c32 0 58 25 58 57v327c0 296-217 364-396 379v728c0 32-26 58-58 58h-630c-32 0-58-26-58-58zm373 331c-32 0-57-26-57-58v-265h-201v663h516v-663h-200v265c0 32-26 58-58 58zm-1-441c304-4 654 53 654-269v-88h-1307v88c0 225 156 269 425 269zm-2702-1606c-88 0-155-258-5-417-271-110-573 89-573 386v984h2194c241 0 288 344 57 410v395c0 277-225 503-502 503h-84l144 143c54 54-29 134-82 81l-225-224h-882l-225 224c-53 54-136-27-82-81l144-143h-84c-277 0-502-226-502-503v-395c-209-60-198-361 14-406v-988c0-409 444-663 795-462 153-67 333-9 417 136 16 28 6 63-21 79l-469 271c-9 5-19 7-29 7zm234-405c-138 0-241 131-206 265l355-205c-39-38-93-60-149-60zm-19 596c-45 0-63-52-93-105-38-65 62-123 100-57 29 50 85 118 22 154-9 5-19 8-29 8zm156-90c-46 0-64-52-94-104-38-66 62-124 100-58 29 51 85 118 22 154-9 6-19 8-28 8zm155-89c-46 0-64-53-94-105-38-66 62-123 100-58 29 51 85 119 23 155-10 5-19 8-29 8zm-112 350c-46 0-64-52-94-104-38-66 62-124 100-58 29 51 85 118 22 154-9 6-19 8-28 8zm155-89c-46 0-64-53-94-105-38-66 62-123 100-58 29 51 85 119 23 155-10 5-19 8-29 8zm155-90c-46 0-64-52-94-104-38-66 62-124 100-58 29 50 85 118 23 154-9 6-19 8-29 8zm-1374 885c-123 0-123 188 0 188h2266c123 0 123-188 0-188zm58 303v387c0 214 174 387 387 387h1376c213 0 387-173 387-387v-387zm3767-1069h-944c-32 0-58-26-58-58v-1114c0-31 26-57 58-57h944c32 0 58 26 58 57v1114c0 32-26 58-58 58zm-886-115h828v-999h-828zm-240 947h1307v-66h-1307z" fill="#e67e22" fill-opacity="1" data-original-color="#000000ff" stroke="none" stroke-opacity="1"/></g></g></svg>