<svg height="300" viewBox="0 0 480 480" width="300" xmlns="http://www.w3.org/2000/svg" version="1.1" xmlns:xlink="http://www.w3.org/1999/xlink" xmlns:svgjs="http://svgjs.dev/svgjs"><g width="100%" height="100%" transform="matrix(1,0,0,1,0,0)"><path d="m456 255.546875h-8v-168c-.242188-46.867187-37.171875-85.324219-83.992188-87.4570312-46.820312-2.1328128-87.097656 32.8046872-91.601562 79.4570312h-16.40625c-13.253906 0-24 10.746094-24 24v16c0 4.417969 3.582031 8 8 8h96c4.417969 0 8-3.582031 8-8v-16c0-13.253906-10.746094-24-24-24h-7.28125c4.285156-24.472656 26.539062-41.632813 51.296875-39.550781 24.761719 2.078125 43.839844 22.707031 43.984375 47.550781v168h-192c0-13.253906-10.746094-24-24-24h-80c-13.253906 0-24 10.746094-24 24h-64c-13.222656.074219-23.9257812 10.777344-24 24 0 13.253906 10.746094 24 24 24h1.761719l12.316406 49.21875c10.519531 42.386719 46.480469 73.636719 89.921875 78.140625v24.640625c0 13.253906 10.746094 24 24 24s24-10.746094 24-24v-24h128v24c0 13.253906 10.746094 24 24 24s24-10.746094 24-24v-24.640625c43.4375-4.503906 79.394531-35.75 89.910156-78.132812l12.328125-49.226563h1.761719c13.222656-.074219 23.925781-10.773437 24-24 0-13.253906-10.746094-24-24-24zm-136-160c4.417969 0 8 3.582031 8 8v8h-80v-8c0-4.417969 3.582031-8 8-8zm40-72c-32.222656.054687-59.390625 24.035156-63.449219 56h-8.078125c4.355469-37.871094 37.472656-65.78125 75.535156-63.660156 38.058594 2.121093 67.871094 33.542969 67.992188 71.660156v168h-8v-168c-.039062-35.328125-28.671875-63.960937-64-64zm-256 232c0-4.417969 3.582031-8 8-8h80c4.417969 0 8 3.582031 8 8v56h-96zm-8 72h112v16h-112zm104 32v8c0 4.417969-3.582031 8-8 8h-80c-4.417969 0-8-3.582031-8-8v-8zm-176-72c-4.417969 0-8-3.582031-8-8-.003906-2.152344.882812-4.214844 2.449219-5.695313 1.457031-1.492187 3.464843-2.324218 5.550781-2.304687h64v16zm136 168c0 4.417969-3.582031 8-8 8s-8-3.582031-8-8v-24h16zm176 0c0 4.417969-3.582031 8-8 8s-8-3.582031-8-8v-24h16zm90.398438-106.65625c-9.726563 39.214844-44.957032 66.726563-85.359376 66.65625h-202.078124c-40.402344.066406-75.636719-27.449219-85.359376-66.664063l-11.355468-45.335937h45.753906v10.226563c-4.933594 2.832031-7.984375 8.082031-8 13.773437v16c.015625 5.691406 3.066406 10.941406 8 13.777344v10.222656c0 13.253906 10.746094 24 24 24h80c13.253906 0 24-10.746094 24-24v-10.222656c4.933594-2.835938 7.984375-8.085938 8-13.777344v-16c-.015625-5.691406-3.066406-10.941406-8-13.773437v-10.226563h221.753906zm35.203124-63.648437c-1.472656 1.507812-3.496093 2.339843-5.601562 2.304687h-240v-16h240c4.417969 0 8 3.582031 8 8 .003906 2.15625-.882812 4.214844-2.449219 5.695313zm0 0" fill="#f0ead6" fill-opacity="1" data-original-color="#000000ff" stroke="none" stroke-opacity="1"/><path d="m280 143.546875h16v16h-16zm0 0" fill="#f0ead6" fill-opacity="1" data-original-color="#000000ff" stroke="none" stroke-opacity="1"/><path d="m280 175.546875h16v16h-16zm0 0" fill="#f0ead6" fill-opacity="1" data-original-color="#000000ff" stroke="none" stroke-opacity="1"/><path d="m312 143.546875h16v16h-16zm0 0" fill="#f0ead6" fill-opacity="1" data-original-color="#000000ff" stroke="none" stroke-opacity="1"/><path d="m312 175.546875h16v16h-16zm0 0" fill="#f0ead6" fill-opacity="1" data-original-color="#000000ff" stroke="none" stroke-opacity="1"/><path d="m248 143.546875h16v16h-16zm0 0" fill="#f0ead6" fill-opacity="1" data-original-color="#000000ff" stroke="none" stroke-opacity="1"/><path d="m248 175.546875h16v16h-16zm0 0" fill="#f0ead6" fill-opacity="1" data-original-color="#000000ff" stroke="none" stroke-opacity="1"/></g></svg>