<svg xmlns="http://www.w3.org/2000/svg" viewBox="0 0 64 64" width="300" height="300" version="1.1" xmlns:xlink="http://www.w3.org/1999/xlink" xmlns:svgjs="http://svgjs.dev/svgjs"><g width="100%" height="100%" transform="matrix(1,0,0,1,0,0)"><title/><g id="bed"><path d="M60,38H4a1,1,0,0,1-1-1V32a9,9,0,0,1,9-9H52a9,9,0,0,1,9,9v5A1,1,0,0,1,60,38ZM5,36H59V32a7,7,0,0,0-7-7H12a7,7,0,0,0-7,7Z" fill="#e67e22" fill-opacity="1" data-original-color="#000000ff" stroke="none" stroke-opacity="1"/><path d="M60,38H4a1,1,0,0,1-1-1V36a8,8,0,0,1,8-8H53a8,8,0,0,1,8,8v1A1,1,0,0,1,60,38ZM5,36H59a6,6,0,0,0-6-6H11A6,6,0,0,0,5,36Z" fill="#e67e22" fill-opacity="1" data-original-color="#000000ff" stroke="none" stroke-opacity="1"/><path d="M60,38H4a1,1,0,0,1-1-1V14A5,5,0,0,1,8,9H56a5,5,0,0,1,5,5V37A1,1,0,0,1,60,38ZM5,36H59V14a3,3,0,0,0-3-3H8a3,3,0,0,0-3,3Z" fill="#e67e22" fill-opacity="1" data-original-color="#000000ff" stroke="none" stroke-opacity="1"/><path d="M30,25H12a1,1,0,0,1-1-1V19a4,4,0,0,1,4-4H27a4,4,0,0,1,4,4v5A1,1,0,0,1,30,25ZM13,23H29V19a2,2,0,0,0-2-2H15a2,2,0,0,0-2,2Z" fill="#e67e22" fill-opacity="1" data-original-color="#000000ff" stroke="none" stroke-opacity="1"/><path d="M52,25H34.35a1,1,0,0,1-1-1V19a4,4,0,0,1,4-4H49a4,4,0,0,1,4,4v5A1,1,0,0,1,52,25ZM35.35,23H51V19a2,2,0,0,0-2-2H37.35a2,2,0,0,0-2,2Z" fill="#e67e22" fill-opacity="1" data-original-color="#000000ff" stroke="none" stroke-opacity="1"/><path d="M62,55H57a1,1,0,0,1-1-1V49H8v5a1,1,0,0,1-1,1H2a1,1,0,0,1-1-1V37a1,1,0,0,1,1-1H62a1,1,0,0,1,1,1V54A1,1,0,0,1,62,55Zm-4-2h3V38H3V53H6V48a1,1,0,0,1,1-1H57a1,1,0,0,1,1,1Z" fill="#e67e22" fill-opacity="1" data-original-color="#000000ff" stroke="none" stroke-opacity="1"/></g></g></svg>