<svg version="1.1" id="svg1782" xml:space="preserve" width="300" height="300" viewBox="0 0 682.66669 682.66669" xmlns="http://www.w3.org/2000/svg" xmlns:svg="http://www.w3.org/2000/svg" xmlns:xlink="http://www.w3.org/1999/xlink" xmlns:svgjs="http://svgjs.dev/svgjs"><g width="100%" height="100%" transform="matrix(1,0,0,1,0,0)"><defs id="defs1786"><clipPath clipPathUnits="userSpaceOnUse" id="clipPath1796"><path d="M 0,512 H 512 V 0 H 0 Z" id="path1794" fill="#000000" fill-opacity="1" data-original-color="#000000ff" stroke="none" stroke-opacity="1"/></clipPath></defs><g id="g1788" transform="matrix(1.3333333,0,0,-1.3333333,0,682.66667)"><g id="g1790"><g id="g1792" clip-path="url(#clipPath1796)"><g id="g1798" transform="translate(431.8935,171.7817)"><path d="m 0,0 c 0,-26.916 -21.82,-48.735 -48.736,-48.735 -26.915,0 -48.735,21.819 -48.735,48.735 0,26.916 21.82,48.735 48.735,48.735 C -21.82,48.735 0,26.916 0,0 Z" style="stroke-linecap: round; stroke-linejoin: round; stroke-miterlimit: 10; stroke-dasharray: none;" id="path1800" fill="none" fill-opacity="1" stroke="#e67e22" stroke-opacity="1" data-original-stroke-color="#050402ff" stroke-width="15" data-original-stroke-width="15"/></g><g id="g1802" transform="translate(407.5258,171.7817)"><path d="m 0,0 c 0,-13.458 -10.91,-24.368 -24.368,-24.368 -13.458,0 -24.368,10.91 -24.368,24.368 0,13.458 10.91,24.368 24.368,24.368 C -10.91,24.368 0,13.458 0,0 Z" style="stroke-linecap: round; stroke-linejoin: round; stroke-miterlimit: 10; stroke-dasharray: none;" id="path1804" fill="none" fill-opacity="1" stroke="#e67e22" stroke-opacity="1" data-original-stroke-color="#050402ff" stroke-width="15" data-original-stroke-width="15"/></g><g id="g1806" transform="translate(149.8769,171.7817)"><path d="m 0,0 c 0,-26.916 -21.82,-48.735 -48.736,-48.735 -26.915,0 -48.735,21.819 -48.735,48.735 0,26.916 21.82,48.735 48.735,48.735 C -21.82,48.735 0,26.916 0,0 Z" style="stroke-linecap: round; stroke-linejoin: round; stroke-miterlimit: 10; stroke-dasharray: none;" id="path1808" fill="none" fill-opacity="1" stroke="#e67e22" stroke-opacity="1" data-original-stroke-color="#050402ff" stroke-width="15" data-original-stroke-width="15"/></g><g id="g1810" transform="translate(125.5088,171.7817)"><path d="m 0,0 c 0,-13.458 -10.91,-24.368 -24.368,-24.368 -13.457,0 -24.367,10.91 -24.367,24.368 0,13.458 10.91,24.368 24.367,24.368 C -10.91,24.368 0,13.458 0,0 Z" style="stroke-linecap: round; stroke-linejoin: round; stroke-miterlimit: 10; stroke-dasharray: none;" id="path1812" fill="none" fill-opacity="1" stroke="#e67e22" stroke-opacity="1" data-original-stroke-color="#050402ff" stroke-width="15" data-original-stroke-width="15"/></g><g id="g1814" transform="translate(488.1308,235.3725)"><path d="m 0,0 c 0,17.735 -3.194,35.326 -9.43,51.929 l -23.639,80.587 c -4.76,12.672 -16.877,21.065 -30.414,21.065 h -405.382 c -6.471,0 -11.766,-5.294 -11.766,-11.766 V 38.417 h 368.132 c 4.871,0 9.596,-1.663 13.394,-4.713 l 37,-29.715 c 3.797,-3.05 8.522,-4.712 13.394,-4.712 l 48.711,0 z" style="stroke-linecap: round; stroke-linejoin: round; stroke-miterlimit: 10; stroke-dasharray: none;" id="path1816" fill="none" fill-opacity="1" stroke="#e67e22" stroke-opacity="1" data-original-stroke-color="#050402ff" stroke-width="15" data-original-stroke-width="15"/></g><g id="g1818" transform="translate(488.1308,235.3725)"><path d="m 0,0 c 0,17.735 -3.194,35.326 -9.43,51.929 l -23.639,80.587 c -4.76,12.672 -16.877,21.065 -30.414,21.065 h -405.382 c -6.471,0 -11.766,-5.294 -11.766,-11.766 V 38.417 h 368.132 c 4.871,0 9.596,-1.663 13.394,-4.713 l 37,-29.715 c 3.797,-3.05 8.522,-4.712 13.394,-4.712 l 48.711,0 z" style="stroke-linecap: round; stroke-linejoin: round; stroke-miterlimit: 10; stroke-dasharray: none;" id="path1820" fill="none" fill-opacity="1" stroke="#e67e22" stroke-opacity="1" data-original-stroke-color="#050402ff" stroke-width="15" data-original-stroke-width="15"/></g><g id="g1822" transform="translate(478.7007,287.3018)"><path d="m 0,0 -23.639,80.586 c -4.759,12.673 -16.877,21.066 -30.414,21.066 h -405.382 c -6.471,0 -11.766,-5.295 -11.766,-11.766 v -193.64 c 0,-6.472 5.295,-11.766 11.766,-11.766 h 33.14 c 0,26.916 21.82,48.735 48.735,48.735 26.916,0 48.736,-21.819 48.736,-48.735 h 184.546 c 0,26.916 21.82,48.735 48.735,48.735 26.916,0 48.736,-21.819 48.736,-48.735 h 44.472 c 6.471,0 11.765,5.294 11.765,11.766 v 51.825 C 9.43,-34.194 6.236,-16.603 0,0 Z" style="stroke-linecap: round; stroke-linejoin: round; stroke-miterlimit: 10; stroke-dasharray: none;" id="path1824" fill="none" fill-opacity="1" stroke="#e67e22" stroke-opacity="1" data-original-stroke-color="#050402ff" stroke-width="15" data-original-stroke-width="15"/></g><g id="g1826" transform="translate(19.2656,388.9536)"><path d="m 0,0 c -6.471,0 -11.766,-5.294 -11.766,-11.766 v -17.536 h 449.978 l -2.416,8.237 C 431.037,-8.393 418.919,0 405.382,0 Z" style="stroke-linecap: round; stroke-linejoin: round; stroke-miterlimit: 10; stroke-dasharray: none;" id="path1828" fill="none" fill-opacity="1" stroke="#e67e22" stroke-opacity="1" data-original-stroke-color="#050402ff" stroke-width="15" data-original-stroke-width="15"/></g><g id="g1830" transform="translate(352.8442,273.7891)"><path d="m 0,0 h 22.788 c 1.915,0 3.805,-0.266 5.628,-0.764 V 85.863 H 0 Z" style="stroke-linecap: round; stroke-linejoin: round; stroke-miterlimit: 10; stroke-dasharray: none;" id="path1832" fill="none" fill-opacity="1" stroke="#e67e22" stroke-opacity="1" data-original-stroke-color="#050402ff" stroke-width="15" data-original-stroke-width="15"/></g><path d="m 163.484,273.789 h 28.415 v 85.863 h -28.415 z" style="stroke-linecap: round; stroke-linejoin: round; stroke-miterlimit: 10; stroke-dasharray: none;" id="path1834" fill="none" fill-opacity="1" stroke="#e67e22" stroke-opacity="1" data-original-stroke-color="#050402ff" stroke-width="15" data-original-stroke-width="15"/><path d="m 68.804,273.789 h 28.415 v 85.863 H 68.804 Z" style="stroke-linecap: round; stroke-linejoin: round; stroke-miterlimit: 10; stroke-dasharray: none;" id="path1836" fill="none" fill-opacity="1" stroke="#e67e22" stroke-opacity="1" data-original-stroke-color="#050402ff" stroke-width="15" data-original-stroke-width="15"/><g id="g1838" transform="translate(462.5351,342.4106)"><path d="M 0,0 H 30.498 L 41.965,-35.815" style="stroke-linecap: round; stroke-linejoin: round; stroke-miterlimit: 10; stroke-dasharray: none;" id="path1840" fill="none" fill-opacity="1" stroke="#e67e22" stroke-opacity="1" data-original-stroke-color="#050402ff" stroke-width="15" data-original-stroke-width="15"/></g><g id="g1842" transform="translate(256.4082,244.8262)"><path d="m 0,0 h 162.813 l -30.195,24.25 c -3.798,3.05 -8.523,4.713 -13.394,4.713 H -248.908 V 0 H -35" style="stroke-linecap: round; stroke-linejoin: round; stroke-miterlimit: 10; stroke-dasharray: none;" id="path1844" fill="none" fill-opacity="1" stroke="#e67e22" stroke-opacity="1" data-original-stroke-color="#050402ff" stroke-width="15" data-original-stroke-width="15"/></g><g id="g1846" transform="translate(286.5796,333.8389)"><path d="M 0,0 V 25.813 H -28.415 V -60.05 H 0 V -35" style="stroke-linecap: round; stroke-linejoin: round; stroke-miterlimit: 10; stroke-dasharray: none;" id="path1848" fill="none" fill-opacity="1" stroke="#e67e22" stroke-opacity="1" data-original-stroke-color="#050402ff" stroke-width="15" data-original-stroke-width="15"/></g></g></g></g></g></svg>