<svg id="Capa_1" enable-background="new 0 0 512 512" height="300" viewBox="0 0 512 512" width="300" xmlns="http://www.w3.org/2000/svg" version="1.1" xmlns:xlink="http://www.w3.org/1999/xlink" xmlns:svgjs="http://svgjs.dev/svgjs"><g width="100%" height="100%" transform="matrix(1,0,0,1,0,0)"><g><path d="m432 337h-80c-25.916 0-47 21.084-47 47v13.726c-97.397-16.451-174.275-93.329-190.726-190.726h13.726c25.916 0 47-21.084 47-47v-80c0-25.916-21.084-47-47-47h-57c-39.149 0-71 31.851-71 71v64c0 46.28 9.076 91.206 26.977 133.527 35.841 84.738 99.446 147.946 183.495 183.496 42.322 17.901 87.247 26.977 133.528 26.977h64c39.149 0 71-31.851 71-71v-57c0-25.916-21.084-47-47-47zm17 104c0 22.607-18.393 41-41 41h-64c-87.985 0-167.827-37.179-222.324-91.675-54.591-54.591-91.676-134.462-91.676-222.325v-64c0-22.607 18.393-41 41-41h57c9.374 0 17 7.626 17 17v80c0 9.374-7.626 17-17 17h-30.835c-8.837 0-15.782 7.62-14.931 16.44 12.05 124.887 111.439 224.277 236.326 236.326 8.77.864 16.44-6.059 16.44-14.931v-30.835c0-9.374 7.626-17 17-17h80c9.374 0 17 7.626 17 17z" fill="#f0ead6" fill-opacity="1" data-original-color="#000000ff" stroke="none" stroke-opacity="1"/><path d="m465 0h-192c-25.916 0-47 21.084-47 47v136c0 25.916 21.084 47 47 47h57.787l27.607 27.606c5.858 5.858 15.355 5.858 21.213 0l27.606-27.606h57.787c25.916 0 47-21.084 47-47v-136c0-25.916-21.084-47-47-47zm17 183c0 9.374-7.626 17-17 17h-64c-3.978 0-7.793 1.58-10.606 4.394l-21.394 21.393-21.394-21.394c-2.813-2.813-6.628-4.393-10.606-4.393h-64c-9.374 0-17-7.626-17-17v-136c0-9.374 7.626-17 17-17h192c9.374 0 17 7.626 17 17z" fill="#f0ead6" fill-opacity="1" data-original-color="#000000ff" stroke="none" stroke-opacity="1"/><circle cx="313" cy="142.994" r="15" fill="#f0ead6" fill-opacity="1" data-original-color="#000000ff" stroke="none" stroke-opacity="1"/><circle cx="369" cy="142.994" r="15" fill="#f0ead6" fill-opacity="1" data-original-color="#000000ff" stroke="none" stroke-opacity="1"/><circle cx="425" cy="142.994" r="15" fill="#f0ead6" fill-opacity="1" data-original-color="#000000ff" stroke="none" stroke-opacity="1"/></g></g></svg>