<svg version="1.1" id="svg2802" xml:space="preserve" width="300" height="300" viewBox="0 0 682.66669 682.66669" xmlns="http://www.w3.org/2000/svg" xmlns:svg="http://www.w3.org/2000/svg" xmlns:xlink="http://www.w3.org/1999/xlink" xmlns:svgjs="http://svgjs.dev/svgjs"><g width="100%" height="100%" transform="matrix(1,0,0,1,0,0)"><defs id="defs2806"><clipPath clipPathUnits="userSpaceOnUse" id="clipPath2816"><path d="M 0,512 H 512 V 0 H 0 Z" id="path2814" fill="#e67e22" fill-opacity="1" data-original-color="#000000ff" stroke="none" stroke-opacity="1"/></clipPath></defs><g id="g2808" transform="matrix(1.3333333,0,0,-1.3333333,0,682.66667)"><g id="g2810"><g id="g2812" clip-path="url(#clipPath2816)"><g id="g2818" transform="translate(314.6416,106.5586)"><path d="M 0,0 C 0,0 -8.801,-43.033 12.044,-68.075" style="stroke-linecap: round; stroke-linejoin: round; stroke-miterlimit: 10; stroke-dasharray: none;" id="path2820" fill="none" fill-opacity="1" stroke="#e67e22" stroke-opacity="1" data-original-stroke-color="#000000ff" stroke-width="15" data-original-stroke-width="15"/></g><g id="g2822" transform="translate(404.3691,106.5586)"><path d="M 0,0 C 0,0 8.802,-43.033 -12.043,-68.075" style="stroke-linecap: round; stroke-linejoin: round; stroke-miterlimit: 10; stroke-dasharray: none;" id="path2824" fill="none" fill-opacity="1" stroke="#e67e22" stroke-opacity="1" data-original-stroke-color="#000000ff" stroke-width="15" data-original-stroke-width="15"/></g><g id="g2826" transform="translate(359.5059,106.5586)"><path d="M 0,0 V -68.075" style="stroke-linecap: round; stroke-linejoin: round; stroke-miterlimit: 10; stroke-dasharray: none;" id="path2828" fill="none" fill-opacity="1" stroke="#e67e22" stroke-opacity="1" data-original-stroke-color="#000000ff" stroke-width="15" data-original-stroke-width="15"/></g><g id="g2830" transform="translate(155.1006,167.8496)"><path d="M 0,0 C 0,0 -14.771,-30.799 -10.668,-129.367" style="stroke-linecap: round; stroke-linejoin: round; stroke-miterlimit: 10; stroke-dasharray: none;" id="path2832" fill="none" fill-opacity="1" stroke="#e67e22" stroke-opacity="1" data-original-stroke-color="#000000ff" stroke-width="15" data-original-stroke-width="15"/></g><g id="g2834" transform="translate(226.9922,167.8496)"><path d="M 0,0 C 0,0 7.995,-81.087 -34.369,-129.367" style="stroke-linecap: round; stroke-linejoin: round; stroke-miterlimit: 10; stroke-dasharray: none;" id="path2836" fill="none" fill-opacity="1" stroke="#e67e22" stroke-opacity="1" data-original-stroke-color="#000000ff" stroke-width="15" data-original-stroke-width="15"/></g><g id="g2838" transform="translate(80.2266,167.8496)"><path d="M 0,0 C 0,0 -17.935,-81.087 24.43,-129.367" style="stroke-linecap: round; stroke-linejoin: round; stroke-miterlimit: 10; stroke-dasharray: none;" id="path2840" fill="none" fill-opacity="1" stroke="#e67e22" stroke-opacity="1" data-original-stroke-color="#000000ff" stroke-width="15" data-original-stroke-width="15"/></g><g id="g2842" transform="translate(440.8838,447.0225)"><path d="m 0,0 c -18.445,54.436 -110.745,23.102 -41.212,-76.641 0.817,-1.172 2.171,-1.861 3.601,-1.83 C 83.947,-75.836 54.845,17.191 0,0 Z" style="stroke-linecap: round; stroke-linejoin: round; stroke-miterlimit: 10; stroke-dasharray: none;" id="path2844" fill="none" fill-opacity="1" stroke="#e67e22" stroke-opacity="1" data-original-stroke-color="#000000ff" stroke-width="15" data-original-stroke-width="15"/></g><g id="g2846" transform="translate(449.4541,125.3018)"><path d="m 0,0 c -7.534,17.396 -17.425,29.588 -25.566,37.492 -21.789,-13.41 -48.969,-17.857 -75.429,-10.013 -14.663,4.347 -27.456,11.979 -37.814,21.854 h -0.439 c 0,0 -50.248,-27.397 -52.198,-104.653 -0.437,-17.279 13.525,-31.498 30.809,-31.498 H -19.26 c 17.284,0 31.246,14.219 30.81,31.498 -0.248,9.833 -1.288,18.843 -2.899,27.107" style="stroke-linecap: round; stroke-linejoin: round; stroke-miterlimit: 10; stroke-dasharray: none;" id="path2848" fill="none" fill-opacity="1" stroke="#e67e22" stroke-opacity="1" data-original-stroke-color="#000000ff" stroke-width="15" data-original-stroke-width="15"/></g><g id="g2850" transform="translate(504.4121,294.249)"><path d="m 0,0 c -0.152,3.289 -1.789,6.305 -4.463,8.225 -19.415,13.939 -42.68,17.874 -61.784,8.371 21.087,-19.445 32.49,-48.031 29.683,-77.408 2.87,0.923 5.673,2.108 8.386,3.58 C -8.792,-46.712 1.137,-24.527 0,0 Z" style="stroke-linecap: round; stroke-linejoin: round; stroke-miterlimit: 10; stroke-dasharray: none;" id="path2852" fill="none" fill-opacity="1" stroke="#e67e22" stroke-opacity="1" data-original-stroke-color="#000000ff" stroke-width="15" data-original-stroke-width="15"/></g><g id="g2854" transform="translate(292.3193,285.4736)"><path d="M 0,0 C 13.656,26.162 38.797,43.913 67.075,48.724 56.236,67.103 34.586,76.484 10.711,75.378 7.422,75.226 4.406,73.589 2.486,70.915 -11.834,50.97 -15.601,26.958 -5.081,7.572 -3.608,4.86 -1.903,2.338 0,0 Z" style="stroke-linecap: round; stroke-linejoin: round; stroke-miterlimit: 10; stroke-dasharray: none;" id="path2856" fill="none" fill-opacity="1" stroke="#e67e22" stroke-opacity="1" data-original-stroke-color="#000000ff" stroke-width="15" data-original-stroke-width="15"/></g><g id="g2858" transform="translate(464.4033,215.7002)"><path d="m 0,0 c -14.643,-49.392 -66.553,-77.562 -115.944,-62.919 -49.392,14.643 -77.562,66.552 -62.919,115.944 14.642,49.392 66.552,77.562 115.944,62.919 C -13.527,101.302 14.643,49.392 0,0 Z" style="stroke-linecap: round; stroke-linejoin: round; stroke-miterlimit: 10; stroke-dasharray: none;" id="path2860" fill="none" fill-opacity="1" stroke="#e67e22" stroke-opacity="1" data-original-stroke-color="#000000ff" stroke-width="15" data-original-stroke-width="15"/></g><g id="g2862" transform="translate(305.0215,360.9199)"><path d="m 0,0 c 17.234,0.379 33.17,-4.748 44.524,-14.807 l 0.007,0.002 c 8.044,110.333 -89.532,65.747 -89.532,65.747 l 0.016,-0.032 c 19.701,-12.5 35.12,-30.261 44.758,-50.921 z" style="stroke-linecap: round; stroke-linejoin: round; stroke-miterlimit: 10; stroke-dasharray: none;" id="path2864" fill="none" fill-opacity="1" stroke="#e67e22" stroke-opacity="1" data-original-stroke-color="#000000ff" stroke-width="15" data-original-stroke-width="15"/></g><g id="g2866" transform="translate(65.8809,338.9824)"><path d="M 0,0 0.001,0.001 C 13.868,22.44 28.849,40.8 43.436,55.684 c 18.445,18.82 41.92,30.451 66.617,34.443 l 0.036,0.029 c 0,0 -51.245,54.926 -116.095,-4.365 C -70.855,26.5 -23.641,-15.846 0,0 Z" style="stroke-linecap: round; stroke-linejoin: round; stroke-miterlimit: 10; stroke-dasharray: none;" id="path2868" fill="none" fill-opacity="1" stroke="#e67e22" stroke-opacity="1" data-original-stroke-color="#000000ff" stroke-width="15" data-original-stroke-width="15"/></g><g id="g2870" transform="translate(33.0615,270.3252)"><path d="m 0,0 c -9.681,-27.015 -17.399,-57.755 -22.056,-92.676 -3.938,-29.539 -4.383,-56.647 -2.207,-81.444 2.868,-32.685 30.308,-57.723 63.118,-57.723 h 216.901 v 10e-4 c -17.284,0 -31.246,14.22 -30.81,31.498 1.95,77.256 52.199,104.654 52.199,104.654 h 0.439 c -24.531,23.388 -35.401,59.362 -25.105,94.09 1.749,5.9 4.034,11.492 6.779,16.748 -1.904,2.338 -3.609,4.861 -5.081,7.573 -10.52,19.385 -6.753,43.397 7.567,63.342 1.92,2.674 4.936,4.311 8.225,4.463 0.59,0.028 1.177,0.043 1.764,0.058 -10.571,22.659 -28.078,41.853 -50.584,54.417 C 173.7,171.488 114.291,163.151 76.255,124.341 53.628,101.253 30.056,69.805 11.159,27.729" style="stroke-linecap: round; stroke-linejoin: round; stroke-miterlimit: 10; stroke-dasharray: none;" id="path2872" fill="none" fill-opacity="1" stroke="#e67e22" stroke-opacity="1" data-original-stroke-color="#000000ff" stroke-width="15" data-original-stroke-width="15"/></g><g id="g2874" transform="translate(134.8604,361.3701)"><path d="M 0,0 -2.943,-11.389" style="stroke-linecap: round; stroke-linejoin: round; stroke-miterlimit: 10; stroke-dasharray: none;" id="path2876" fill="none" fill-opacity="1" stroke="#e67e22" stroke-opacity="1" data-original-stroke-color="#000000ff" stroke-width="15" data-original-stroke-width="15"/></g><g id="g2878" transform="translate(253.4014,330.7305)"><path d="M 0,0 -2.943,-11.39" style="stroke-linecap: round; stroke-linejoin: round; stroke-miterlimit: 10; stroke-dasharray: none;" id="path2880" fill="none" fill-opacity="1" stroke="#e67e22" stroke-opacity="1" data-original-stroke-color="#000000ff" stroke-width="15" data-original-stroke-width="15"/></g><g id="g2882" transform="translate(186.998,317.7412)"><path d="m 0,0 c -1.958,-7.577 -9.688,-12.132 -17.266,-10.173 -7.577,1.958 -12.132,9.689 -10.173,17.266" style="stroke-linecap: round; stroke-linejoin: miter; stroke-miterlimit: 10; stroke-dasharray: none;" id="path2884" fill="none" fill-opacity="1" stroke="#e67e22" stroke-opacity="1" data-original-stroke-color="#000000ff" stroke-width="15" data-original-stroke-width="15"/></g><g id="g2886" transform="translate(214.4385,310.6494)"><path d="m 0,0 c -1.959,-7.578 -9.689,-12.133 -17.267,-10.174 -7.577,1.958 -12.131,9.689 -10.173,17.266 l 3.624,14.018" style="stroke-linecap: round; stroke-linejoin: miter; stroke-miterlimit: 10; stroke-dasharray: none;" id="path2888" fill="none" fill-opacity="1" stroke="#e67e22" stroke-opacity="1" data-original-stroke-color="#000000ff" stroke-width="15" data-original-stroke-width="15"/></g><g id="g2890" transform="translate(179.9561,334.5166)"><path d="M 0,0 21.332,-5.514" style="stroke-linecap: round; stroke-linejoin: miter; stroke-miterlimit: 10; stroke-dasharray: none;" id="path2892" fill="none" fill-opacity="1" stroke="#e67e22" stroke-opacity="1" data-original-stroke-color="#000000ff" stroke-width="15" data-original-stroke-width="15"/></g><g id="g2894" transform="translate(326.7441,272.5967)"><path d="M 0,0 -2.649,-10.249" style="stroke-linecap: round; stroke-linejoin: round; stroke-miterlimit: 10; stroke-dasharray: none;" id="path2896" fill="none" fill-opacity="1" stroke="#e67e22" stroke-opacity="1" data-original-stroke-color="#000000ff" stroke-width="15" data-original-stroke-width="15"/></g><g id="g2898" transform="translate(433.4131,245.0244)"><path d="M 0,0 -2.649,-10.249" style="stroke-linecap: round; stroke-linejoin: round; stroke-miterlimit: 10; stroke-dasharray: none;" id="path2900" fill="none" fill-opacity="1" stroke="#e67e22" stroke-opacity="1" data-original-stroke-color="#000000ff" stroke-width="15" data-original-stroke-width="15"/></g><g id="g2902" transform="translate(373.6602,233.3369)"><path d="m 0,0 c -1.763,-6.818 -8.719,-10.917 -15.537,-9.155 -6.818,1.762 -10.917,8.718 -9.155,15.537" style="stroke-linecap: round; stroke-linejoin: miter; stroke-miterlimit: 10; stroke-dasharray: none;" id="path2904" fill="none" fill-opacity="1" stroke="#e67e22" stroke-opacity="1" data-original-stroke-color="#000000ff" stroke-width="15" data-original-stroke-width="15"/></g><g id="g2906" transform="translate(398.3516,226.9541)"><path d="m 0,0 c -1.763,-6.818 -8.719,-10.917 -15.537,-9.154 -6.818,1.762 -10.917,8.718 -9.154,15.537" style="stroke-linecap: round; stroke-linejoin: miter; stroke-miterlimit: 10; stroke-dasharray: none;" id="path2908" fill="none" fill-opacity="1" stroke="#e67e22" stroke-opacity="1" data-original-stroke-color="#000000ff" stroke-width="15" data-original-stroke-width="15"/></g></g></g></g></g></svg>