<svg version="1.1" id="Capa_1" xmlns="http://www.w3.org/2000/svg" xmlns:xlink="http://www.w3.org/1999/xlink" x="0px" y="0px" viewBox="0 0 492.432 492.432" style="enable-background:new 0 0 492.432 492.432;" xml:space="preserve" width="300" height="300" xmlns:svgjs="http://svgjs.dev/svgjs"><g width="100%" height="100%" transform="matrix(1,0,0,1,0,0)"><g id="XMLID_134_">
	<path id="XMLID_135_" d="M142.238,492.432c-9.79,0-19.588-3.736-27.05-11.209c-14.945-14.934-14.945-39.162,0-54.098l180.9-180.909&#10;&#9;&#9;l-180.9-180.91c-14.945-14.935-14.945-39.163,0-54.098c14.926-14.944,39.172-14.944,54.098,0l207.96,207.958&#10;&#9;&#9;c14.943,14.935,14.943,39.164,0,54.1l-207.96,207.957C161.824,488.697,152.026,492.432,142.238,492.432z" fill="#f0ead6" fill-opacity="1" data-original-color="#000000ff" stroke="none" stroke-opacity="1"/>
</g><g>
</g><g>
</g><g>
</g><g>
</g><g>
</g><g>
</g><g>
</g><g>
</g><g>
</g><g>
</g><g>
</g><g>
</g><g>
</g><g>
</g><g>
</g></g></svg>