<svg id="Export_Bold" enable-background="new 0 0 500 500" viewBox="0 0 500 500" xmlns="http://www.w3.org/2000/svg" width="300" height="300" version="1.1" xmlns:xlink="http://www.w3.org/1999/xlink" xmlns:svgjs="http://svgjs.dev/svgjs"><g width="100%" height="100%" transform="matrix(1,0,0,1,0,0)"><g><path d="m379.8 32h-259.6c-13.8 0-25 11.2-25 25v391.5c0 8.8 4.6 17 12.2 21.5 3.9 2.3 8.4 3.5 12.8 3.5 4.1 0 8.2-1 11.9-3l122.9-66.8 112 66.3c7.7 4.6 17.3 4.6 25.1.2s12.6-12.7 12.6-21.7v-391.5c.1-13.8-11.1-25-24.9-25zm-25 372.7-86.5-51.2c-7.6-4.5-16.9-4.7-24.7-.5l-98.4 53.4v-324.4h209.5v322.7z" fill="#f0ead6" fill-opacity="1" data-original-color="#000000ff" stroke="none" stroke-opacity="1"/><path d="m209.5 175h80.9c13.8 0 25-11.2 25-25s-11.2-25-25-25h-80.9c-13.8 0-25 11.2-25 25s11.2 25 25 25z" fill="#f0ead6" fill-opacity="1" data-original-color="#000000ff" stroke="none" stroke-opacity="1"/></g></g></svg>