<svg id="Capa_1" enable-background="new 0 0 207.2 207.2" height="300" viewBox="0 0 207.2 207.2" width="300" xmlns="http://www.w3.org/2000/svg" version="1.1" xmlns:xlink="http://www.w3.org/1999/xlink" xmlns:svgjs="http://svgjs.dev/svgjs"><g width="100%" height="100%" transform="matrix(1,0,0,1,0,0)"><g><g id="_28"><path d="m81.405 162.8c-44.956 0-81.4-36.444-81.4-81.4s36.444-81.4 81.4-81.4 81.4 36.444 81.4 81.4-36.444 81.4-81.4 81.4zm0-148c-36.782 0-66.6 29.818-66.6 66.6s29.818 66.6 66.6 66.6 66.6-29.818 66.6-66.6-29.818-66.6-66.6-66.6z" fill="#3a0303" fill-opacity="1" data-original-color="#000000ff" stroke="none" stroke-opacity="1"/><path d="m199.805 207.2c-1.799-.003-3.535-.66-4.884-1.85l-66.6-59.2c-2.948-2.831-3.042-7.516-.211-10.463 2.658-2.767 6.99-3.044 9.979-.637l66.6 59.2c3.061 2.699 3.359 7.367.666 10.434-1.403 1.597-3.425 2.513-5.55 2.516z" fill="#3a0303" fill-opacity="1" data-original-color="#000000ff" stroke="none" stroke-opacity="1"/></g></g></g></svg>