<svg version="1.1" id="svg4755" xml:space="preserve" width="300" height="300" viewBox="0 0 682.66669 682.66669" xmlns="http://www.w3.org/2000/svg" xmlns:svg="http://www.w3.org/2000/svg" xmlns:xlink="http://www.w3.org/1999/xlink" xmlns:svgjs="http://svgjs.dev/svgjs"><g width="100%" height="100%" transform="matrix(1,0,0,1,0,0)"><defs id="defs4759"><clipPath clipPathUnits="userSpaceOnUse" id="clipPath4785"><path d="M 0,512 H 512 V 0 H 0 Z" id="path4783" fill="#e67e22" fill-opacity="1" data-original-color="#000000ff" stroke="none" stroke-opacity="1"/></clipPath></defs><g id="g4761" transform="matrix(1.3333333,0,0,-1.3333333,0,682.66667)"><g id="g4763" transform="translate(207.9033,332.9819)"><path d="M 0,0 V 112.226 H 80.161 V 0" style="stroke-linecap: round; stroke-linejoin: round; stroke-miterlimit: 10; stroke-dasharray: none;" id="path4765" fill="none" fill-opacity="1" stroke="#e67e22" stroke-opacity="1" data-original-stroke-color="#000000ff" stroke-width="15" data-original-stroke-width="15"/></g><g id="g4767" transform="translate(239.9678,413.1431)"><path d="M 0,0 H 16.032" style="stroke-linecap: round; stroke-linejoin: round; stroke-miterlimit: 10; stroke-dasharray: none;" id="path4769" fill="none" fill-opacity="1" stroke="#e67e22" stroke-opacity="1" data-original-stroke-color="#000000ff" stroke-width="15" data-original-stroke-width="15"/></g><g id="g4771" transform="translate(207.9033,381.0786)"><path d="M 0,0 H 80.161" style="stroke-linecap: round; stroke-linejoin: round; stroke-miterlimit: 10; stroke-dasharray: none;" id="path4773" fill="none" fill-opacity="1" stroke="#e67e22" stroke-opacity="1" data-original-stroke-color="#000000ff" stroke-width="15" data-original-stroke-width="15"/></g><g id="g4775" transform="translate(288.0645,413.1431)"><path d="M 0,0 H 48.097" style="stroke-linecap: round; stroke-linejoin: round; stroke-miterlimit: 10; stroke-dasharray: none;" id="path4777" fill="none" fill-opacity="1" stroke="#e67e22" stroke-opacity="1" data-original-stroke-color="#000000ff" stroke-width="15" data-original-stroke-width="15"/></g><g id="g4779"><g id="g4781" clip-path="url(#clipPath4785)"><g id="g4787" transform="translate(132.0312,332.9902)"><path d="m 0,0 c -10.944,31.35 -4.29,71.278 -4.29,71.278 l -11.787,35.362 c -2.344,7.033 1.457,14.635 8.491,16.98 6.452,2.151 13.494,-0.865 16.391,-7.019 L 48.629,31.973" style="stroke-linecap: round; stroke-linejoin: round; stroke-miterlimit: 10; stroke-dasharray: none;" id="path4789" fill="none" fill-opacity="1" stroke="#e67e22" stroke-opacity="1" data-original-stroke-color="#000000ff" stroke-width="15" data-original-stroke-width="15"/></g><g id="g4791" transform="translate(123.7441,420.5405)"><path d="M 0,0 23.742,10.396" style="stroke-linecap: round; stroke-linejoin: round; stroke-miterlimit: 10; stroke-dasharray: none;" id="path4793" fill="none" fill-opacity="1" stroke="#e67e22" stroke-opacity="1" data-original-stroke-color="#000000ff" stroke-width="15" data-original-stroke-width="15"/></g><g id="g4795" transform="translate(162.6978,404.4995)"><path d="M 0,0 C 3.337,23.631 11.874,43.543 11.874,43.543 L 8.825,80.692 c -0.606,7.39 4.892,13.871 12.281,14.477 6.779,0.557 12.903,-4.045 14.254,-10.712 l 9.846,-52.624" style="stroke-linecap: round; stroke-linejoin: round; stroke-miterlimit: 10; stroke-dasharray: none;" id="path4797" fill="none" fill-opacity="1" stroke="#e67e22" stroke-opacity="1" data-original-stroke-color="#000000ff" stroke-width="15" data-original-stroke-width="15"/></g><g id="g4799" transform="translate(174.5542,464.7983)"><path d="M 0,0 25.532,4.458" style="stroke-linecap: round; stroke-linejoin: round; stroke-miterlimit: 10; stroke-dasharray: none;" id="path4801" fill="none" fill-opacity="1" stroke="#e67e22" stroke-opacity="1" data-original-stroke-color="#000000ff" stroke-width="15" data-original-stroke-width="15"/></g><g id="g4803" transform="translate(400.2905,332.9819)"><path d="m 0,0 v 73.521 c 0,4.251 -1.689,8.33 -4.696,11.336 l -6.641,6.641 c -3.006,3.006 -4.695,7.085 -4.695,11.336 v 25.424 c 0,4.427 -3.59,8.016 -8.017,8.016 h -16.032 c -4.427,0 -8.016,-3.589 -8.016,-8.016 v -25.424 c 0,-4.251 -1.689,-8.33 -4.695,-11.336 l -6.642,-6.641 c -3.006,-3.006 -4.695,-7.085 -4.695,-11.336 V 0" style="stroke-linecap: round; stroke-linejoin: round; stroke-miterlimit: 10; stroke-dasharray: none;" id="path4805" fill="none" fill-opacity="1" stroke="#e67e22" stroke-opacity="1" data-original-stroke-color="#000000ff" stroke-width="15" data-original-stroke-width="15"/></g><g id="g4807" transform="translate(352.1934,437.1914)"><path d="M 0,0 H 32.065" style="stroke-linecap: round; stroke-linejoin: round; stroke-miterlimit: 10; stroke-dasharray: none;" id="path4809" fill="none" fill-opacity="1" stroke="#e67e22" stroke-opacity="1" data-original-stroke-color="#000000ff" stroke-width="15" data-original-stroke-width="15"/></g><g id="g4811" transform="translate(460.6548,332.9819)"><path d="M 0,0 10.824,30.182 C 16.802,46.852 8.135,65.211 -8.534,71.188 -25.203,77.167 -43.563,68.5 -49.541,51.831 L -60.364,21.648" style="stroke-linecap: round; stroke-linejoin: round; stroke-miterlimit: 10; stroke-dasharray: none;" id="path4813" fill="none" fill-opacity="1" stroke="#e67e22" stroke-opacity="1" data-original-stroke-color="#000000ff" stroke-width="15" data-original-stroke-width="15"/></g><g id="g4815" transform="translate(471.479,363.1641)"><path d="M 0,0 -15.091,5.412" style="stroke-linecap: round; stroke-linejoin: round; stroke-miterlimit: 10; stroke-dasharray: none;" id="path4817" fill="none" fill-opacity="1" stroke="#e67e22" stroke-opacity="1" data-original-stroke-color="#000000ff" stroke-width="15" data-original-stroke-width="15"/></g><g id="g4819" transform="translate(408.4082,377.2666)"><path d="M 0,0 15.091,-5.412" style="stroke-linecap: round; stroke-linejoin: round; stroke-miterlimit: 10; stroke-dasharray: none;" id="path4821" fill="none" fill-opacity="1" stroke="#e67e22" stroke-opacity="1" data-original-stroke-color="#000000ff" stroke-width="15" data-original-stroke-width="15"/></g><g id="g4823" transform="translate(452.1206,404.1704)"><path d="M 0,0 24.354,67.911" style="stroke-linecap: round; stroke-linejoin: round; stroke-miterlimit: 10; stroke-dasharray: none;" id="path4825" fill="none" fill-opacity="1" stroke="#e67e22" stroke-opacity="1" data-original-stroke-color="#000000ff" stroke-width="15" data-original-stroke-width="15"/></g><g id="g4827" transform="translate(443.0142,450.0166)"><path d="M 0,0 1.561,-43.14" style="stroke-linecap: round; stroke-linejoin: round; stroke-miterlimit: 10; stroke-dasharray: none;" id="path4829" fill="none" fill-opacity="1" stroke="#e67e22" stroke-opacity="1" data-original-stroke-color="#000000ff" stroke-width="15" data-original-stroke-width="15"/></g><g id="g4831" transform="translate(488.2876,433.7808)"><path d="M 0,0 -28.621,-32.316" style="stroke-linecap: round; stroke-linejoin: round; stroke-miterlimit: 10; stroke-dasharray: none;" id="path4833" fill="none" fill-opacity="1" stroke="#e67e22" stroke-opacity="1" data-original-stroke-color="#000000ff" stroke-width="15" data-original-stroke-width="15"/></g><g id="g4835" transform="translate(336.1611,381.0786)"><path d="m 0,0 h 16.032 c 8.855,0 16.032,-7.178 16.032,-16.032 v -32.065" style="stroke-linecap: round; stroke-linejoin: round; stroke-miterlimit: 10; stroke-dasharray: none;" id="path4837" fill="none" fill-opacity="1" stroke="#e67e22" stroke-opacity="1" data-original-stroke-color="#000000ff" stroke-width="15" data-original-stroke-width="15"/></g><g id="g4839" transform="translate(98.5039,284.8164)"><path d="m 0,0 43.079,-112.667 c 10.667,-27.898 39.181,-44.738 68.762,-40.611 l 259.614,36.225 c 19.803,2.764 34.541,19.701 34.541,39.697 V 48.09 h -422.85" style="stroke-linecap: round; stroke-linejoin: round; stroke-miterlimit: 10; stroke-dasharray: none;" id="path4841" fill="none" fill-opacity="1" stroke="#e67e22" stroke-opacity="1" data-original-stroke-color="#000000ff" stroke-width="15" data-original-stroke-width="15"/></g><g id="g4843" transform="translate(7.5,397.0352)"><path d="m 0,0 h 26.028 c 13.291,0 25.204,-8.199 29.95,-20.613 l 22.809,-59.653" style="stroke-linecap: round; stroke-linejoin: round; stroke-miterlimit: 10; stroke-dasharray: none;" id="path4845" fill="none" fill-opacity="1" stroke="#e67e22" stroke-opacity="1" data-original-stroke-color="#000000ff" stroke-width="15" data-original-stroke-width="15"/></g><g id="g4847" transform="translate(159.8066,44.3501)"><path d="m 0,0 c 0,-17.708 -14.356,-32.064 -32.065,-32.064 -17.708,0 -32.064,14.356 -32.064,32.064 0,17.709 14.356,32.064 32.064,32.064 C -14.356,32.064 0,17.709 0,0 Z" style="stroke-linecap: round; stroke-linejoin: round; stroke-miterlimit: 10; stroke-dasharray: none;" id="path4849" fill="none" fill-opacity="1" stroke="#e67e22" stroke-opacity="1" data-original-stroke-color="#000000ff" stroke-width="15" data-original-stroke-width="15"/></g><g id="g4851" transform="translate(127.7417,44.3501)"><path d="M 0,0 H 0.081" style="stroke-linecap: round; stroke-linejoin: round; stroke-miterlimit: 10; stroke-dasharray: none;" id="path4853" fill="none" fill-opacity="1" stroke="#e67e22" stroke-opacity="1" data-original-stroke-color="#000000ff" stroke-width="15" data-original-stroke-width="15"/></g><g id="g4855" transform="translate(504.5,44.3501)"><path d="m 0,0 c 0,-17.708 -14.356,-32.064 -32.064,-32.064 -17.709,0 -32.065,14.356 -32.065,32.064 0,17.709 14.356,32.064 32.065,32.064 C -14.356,32.064 0,17.709 0,0 Z" style="stroke-linecap: round; stroke-linejoin: round; stroke-miterlimit: 10; stroke-dasharray: none;" id="path4857" fill="none" fill-opacity="1" stroke="#e67e22" stroke-opacity="1" data-original-stroke-color="#000000ff" stroke-width="15" data-original-stroke-width="15"/></g><g id="g4859" transform="translate(472.4355,44.3501)"><path d="M 0,0 H 0.08" style="stroke-linecap: round; stroke-linejoin: round; stroke-miterlimit: 10; stroke-dasharray: none;" id="path4861" fill="none" fill-opacity="1" stroke="#e67e22" stroke-opacity="1" data-original-stroke-color="#000000ff" stroke-width="15" data-original-stroke-width="15"/></g><g id="g4863" transform="translate(159.8066,44.3501)"><path d="M 0,0 H 248.5" style="stroke-linecap: round; stroke-linejoin: round; stroke-miterlimit: 10; stroke-dasharray: none;" id="path4865" fill="none" fill-opacity="1" stroke="#e67e22" stroke-opacity="1" data-original-stroke-color="#000000ff" stroke-width="15" data-original-stroke-width="15"/></g><g id="g4867" transform="translate(141.1021,76.4146)"><path d="M 0,0 26.721,64.129" style="stroke-linecap: round; stroke-linejoin: round; stroke-miterlimit: 10; stroke-dasharray: none;" id="path4869" fill="none" fill-opacity="1" stroke="#e67e22" stroke-opacity="1" data-original-stroke-color="#000000ff" stroke-width="15" data-original-stroke-width="15"/></g><g id="g4871" transform="translate(160.5903,300.8418)"><path d="M 0,0 37.768,-137.617" style="stroke-linecap: round; stroke-linejoin: round; stroke-miterlimit: 10; stroke-dasharray: none;" id="path4873" fill="none" fill-opacity="1" stroke="#e67e22" stroke-opacity="1" data-original-stroke-color="#000000ff" stroke-width="15" data-original-stroke-width="15"/></g><g id="g4875" transform="translate(407.3042,191.5366)"><path d="M 0,0 V 109.305" style="stroke-linecap: round; stroke-linejoin: round; stroke-miterlimit: 10; stroke-dasharray: none;" id="path4877" fill="none" fill-opacity="1" stroke="#e67e22" stroke-opacity="1" data-original-stroke-color="#000000ff" stroke-width="15" data-original-stroke-width="15"/></g><g id="g4879" transform="translate(229.2617,300.8418)"><path d="M 0,0 21.802,-131.247" style="stroke-linecap: round; stroke-linejoin: round; stroke-miterlimit: 10; stroke-dasharray: none;" id="path4881" fill="none" fill-opacity="1" stroke="#e67e22" stroke-opacity="1" data-original-stroke-color="#000000ff" stroke-width="15" data-original-stroke-width="15"/></g><g id="g4883" transform="translate(356.2017,184.8252)"><path d="M 0,0 V 116.017" style="stroke-linecap: round; stroke-linejoin: round; stroke-miterlimit: 10; stroke-dasharray: none;" id="path4885" fill="none" fill-opacity="1" stroke="#e67e22" stroke-opacity="1" data-original-stroke-color="#000000ff" stroke-width="15" data-original-stroke-width="15"/></g><g id="g4887" transform="translate(297.9331,300.8418)"><path d="M 0,0 7.147,-123.709" style="stroke-linecap: round; stroke-linejoin: round; stroke-miterlimit: 10; stroke-dasharray: none;" id="path4889" fill="none" fill-opacity="1" stroke="#e67e22" stroke-opacity="1" data-original-stroke-color="#000000ff" stroke-width="15" data-original-stroke-width="15"/></g><g id="g4891" transform="translate(456.4033,300.8662)"><path d="M 0,0 V -100.487" style="stroke-linecap: round; stroke-linejoin: round; stroke-miterlimit: 10; stroke-dasharray: none;" id="path4893" fill="none" fill-opacity="1" stroke="#e67e22" stroke-opacity="1" data-original-stroke-color="#000000ff" stroke-width="15" data-original-stroke-width="15"/></g></g></g></g></g></svg>