<svg version="1.1" id="Capa_1" xmlns="http://www.w3.org/2000/svg" xmlns:xlink="http://www.w3.org/1999/xlink" x="0px" y="0px" viewBox="0 0 512 512" style="enable-background:new 0 0 512 512;" xml:space="preserve" width="300" height="300" xmlns:svgjs="http://svgjs.dev/svgjs"><g width="100%" height="100%" transform="matrix(1,0,0,1,0,0)"><g>
	<g>
		<path d="M489.669,252.88L382.088,360.46l-77.044-77.044l58.959-66.44c39.811,13.776,84.812,3.793,115.031-26.427v0.001&#10;&#9;&#9;&#9;c20.692-20.691,32.249-48.197,32.544-77.455c0.296-29.21-10.659-56.904-30.847-77.978l-13.625-14.226l-43.999,74.031&#10;&#9;&#9;&#9;l-18.101-8.985l32.761-80.323l-18.359-3.164c-35.586-6.134-72.049,5.43-97.546,30.928c-30.719,30.718-40.493,76.276-25.92,116.466&#10;&#9;&#9;&#9;l-66.188,58.282l-63.208-63.208l13.706-58.522L119.044,25.19l-8.944,8.944L75.966,0l-10.59,10.59L54.786,21.18L88.92,55.313&#10;&#9;&#9;&#9;L56.431,87.802L22.297,53.669l-21.18,21.18l34.135,34.135l-8.945,8.945l61.206,61.206l57.437-13.452l62.277,62.277L21.669,391.349&#10;&#9;&#9;&#9;l-0.692,0.65c-27.413,27.414-27.414,72.02,0,99.435c13.708,13.707,31.712,20.56,49.717,20.56c18.006,0,36.011-6.853,49.718-20.561&#10;&#9;&#9;&#9;l0.315-0.315l164.399-185.259l75.781,75.781l-14.636,14.636c-13.111,13.11-20.331,30.542-20.331,49.084&#10;&#9;&#9;&#9;c0,18.541,7.22,35.974,20.331,49.084C357.977,506.148,373.348,512,388.722,512s30.748-5.852,42.452-17.556&#10;&#9;&#9;&#9;c23.406-23.406,23.406-61.493,0-84.9l-27.903-27.904l107.581-107.581L489.669,252.88z M139.217,130.242l-7.858,7.859&#10;&#9;&#9;&#9;l-34.452,8.068l-28.242-28.242l50.378-50.378l28.242,28.242L139.217,130.242z M98.938,470.545&#10;&#9;&#9;&#9;c-15.759,15.445-41.143,15.347-56.782-0.291c-15.631-15.633-15.733-41.004-0.309-56.764L332.37,157.675l-4.975-10.251&#10;&#9;&#9;&#9;c-15.094-31.093-8.806-68.414,15.646-92.868c14.031-14.03,32.606-22.283,52.036-23.587l-28.315,69.424l67.906,33.705&#10;&#9;&#9;&#9;l36.688-61.731c6.843,12.215,10.417,26.068,10.271,40.424c-0.216,21.37-8.658,41.462-23.773,56.576v0.001&#10;&#9;&#9;&#9;c-15.536,15.536-36.412,23.752-57.556,23.75c-11.586-0.001-23.258-2.469-34.165-7.553l-10.119-4.717L98.938,470.545z&#10;&#9;&#9;&#9; M409.992,430.724c11.728,11.729,11.728,30.812,0,42.54c-11.73,11.729-30.813,11.728-42.54,0&#10;&#9;&#9;&#9;c-7.453-7.453-11.558-17.364-11.558-27.904c0-1.101,0.055-2.195,0.144-3.28c0.761-9.303,4.74-17.949,11.414-24.623l14.636-14.636&#10;&#9;&#9;&#9;L409.992,430.724z" fill="#e67e22" fill-opacity="1" data-original-color="#000000ff" stroke="none" stroke-opacity="1"/>
	</g>
</g><g>
	<g>
		
			<rect x="49.572" y="388.839" transform="matrix(0.7071 -0.7071 0.7071 0.7071 -253.7342 195.0624)" width="118.044" height="29.953" fill="#e67e22" fill-opacity="1" data-original-color="#000000ff" stroke="none" stroke-opacity="1"/>
	</g>
</g><g>
</g><g>
</g><g>
</g><g>
</g><g>
</g><g>
</g><g>
</g><g>
</g><g>
</g><g>
</g><g>
</g><g>
</g><g>
</g><g>
</g><g>
</g></g></svg>